<?xml version="1.0" encoding="utf-8"?>
<!-- Generator: Adobe Illustrator 15.1.0, SVG Export Plug-In . SVG Version: 6.00 Build 0)  -->
<!DOCTYPE svg PUBLIC "-//W3C//DTD SVG 1.1//EN" "http://www.w3.org/Graphics/SVG/1.1/DTD/svg11.dtd">
<svg version="1.1" id="Layer_1" xmlns="http://www.w3.org/2000/svg" xmlns:xlink="http://www.w3.org/1999/xlink" x="0px" y="0px"
	 width="136.833px" height="204.761px" viewBox="0 0 136.833 204.761" enable-background="new 0 0 136.833 204.761"
	 xml:space="preserve">
<g>
	<g>
		<path fill="#FFFFFF" d="M68.169,10.595c-2.305-0.025-4.418,1.304-5.395,3.392L16.66,109.669
			c-8.6,17.879-7.753,38.863,2.262,55.986c9.235,16.424,26.136,27.075,44.93,28.318c2.856,0.201,5.723,0.201,8.574,0
			c18.783-1.225,35.671-11.827,44.933-28.21c10.015-17.122,10.872-38.109,2.269-55.983L73.562,13.987
			C72.588,11.899,70.475,10.57,68.169,10.595 M68.169,204.761h-5.014c-22.354-1.445-42.471-14.057-53.509-33.549
			C-2.185,151.007-3.195,126.244,6.95,105.14L53.066,9.458C57.139,1.107,67.209-2.371,75.57,1.699
			c3.378,1.648,6.106,4.382,7.755,7.759l46.063,95.521c10.146,21.099,9.135,45.869-2.694,66.073
			c-10.999,19.551-31.121,32.232-53.511,33.71L68.169,204.761L68.169,204.761z"/>
	</g>
</g>
</svg>
