<?xml version="1.0" encoding="utf-8"?>
<!-- Generator: Adobe Illustrator 15.1.0, SVG Export Plug-In . SVG Version: 6.00 Build 0)  -->
<!DOCTYPE svg PUBLIC "-//W3C//DTD SVG 1.1//EN" "http://www.w3.org/Graphics/SVG/1.1/DTD/svg11.dtd">
<svg version="1.1" id="Layer_1" xmlns="http://www.w3.org/2000/svg" xmlns:xlink="http://www.w3.org/1999/xlink" x="0px" y="0px"
	 width="136.833px" height="204.761px" viewBox="0 0 136.833 204.761" enable-background="new 0 0 136.833 204.761"
	 xml:space="preserve">
<g>
	<defs>
		<rect id="SVGID_1_" width="136.339" height="204.761"/>
	</defs>
	<clipPath id="SVGID_2_">
		<use xlink:href="#SVGID_1_"  overflow="visible"/>
	</clipPath>
	<path clip-path="url(#SVGID_2_)" fill="#373636" d="M68.169,10.595c-2.305-0.025-4.418,1.304-5.395,3.392L16.66,109.67
		c-8.6,17.878-7.753,38.862,2.262,55.986c9.235,16.424,26.136,27.075,44.93,28.318c2.856,0.202,5.722,0.202,8.574,0
		c18.783-1.224,35.671-11.827,44.933-28.21c10.014-17.122,10.872-38.109,2.268-55.983L73.562,13.987
		C72.588,11.899,70.475,10.57,68.169,10.595 M68.169,204.761h-5.014c-22.354-1.445-42.471-14.057-53.509-33.548
		c-11.831-20.206-12.841-44.969-2.696-66.073L53.066,9.458C57.139,1.107,67.209-2.371,75.57,1.699
		c3.377,1.648,6.106,4.382,7.754,7.759l46.064,95.521c10.145,21.099,9.135,45.869-2.694,66.073
		c-10.999,19.551-31.121,32.233-53.511,33.71H68.169z"/>
</g>
</svg>
