<?xml version="1.0" encoding="utf-8"?>
<!-- Generator: Adobe Illustrator 15.1.0, SVG Export Plug-In . SVG Version: 6.00 Build 0)  -->
<!DOCTYPE svg PUBLIC "-//W3C//DTD SVG 1.1//EN" "http://www.w3.org/Graphics/SVG/1.1/DTD/svg11.dtd">
<svg version="1.1" id="Layer_1" xmlns="http://www.w3.org/2000/svg" xmlns:xlink="http://www.w3.org/1999/xlink" x="0px" y="0px"
	 width="254.762px" height="204.761px" viewBox="0 0 254.762 204.761" enable-background="new 0 0 254.762 204.761"
	 xml:space="preserve">
<g>
	<defs>
		<rect id="SVGID_1_" x="0" y="0" width="253.175" height="205.07"/>
	</defs>
	<clipPath id="SVGID_2_">
		<use xlink:href="#SVGID_1_"  overflow="visible"/>
	</clipPath>
	<path clip-path="url(#SVGID_2_)" fill="#7DA29D " d="M51.648,94.621c0-23.693,19.275-42.973,42.968-42.973
		c19.404,0,36.074,12.935,41.28,31.028c-20.802,5.562-37.377,21.545-43.462,42.634c-1.017-0.093-2.029-0.139-3.051-0.139
		c-6.742,0-13.03,1.978-18.326,5.367C58.989,122.635,51.648,109.265,51.648,94.621 M145.693,96.129
		c0.025-0.005,0.05-0.017,0.079-0.017c2.111-0.288,4.264-0.429,6.448-0.429c21.124,0,39.797,14.205,45.414,34.55
		c1.107,4.021,5.258,6.387,9.287,5.296c2.119-0.577,4.296-0.869,6.479-0.869c13.574,0,24.624,11.046,24.624,24.625
		c0,5.399-1.714,10.52-4.957,14.815c-0.175,0.23-0.335,0.468-0.48,0.715c-5.501,9.32-15.61,15.109-26.409,15.109H101.058
		c-16.896,0-30.634-13.747-30.634-30.64c0-10.453,8.503-18.962,18.96-18.962c2.152,0,4.269,0.362,6.294,1.074
		c2.127,0.747,4.468,0.515,6.403-0.645c1.93-1.149,3.246-3.105,3.595-5.328c3.274-20.831,19.604-36.495,39.983-39.295
		C145.667,96.125,145.684,96.129,145.693,96.129 M101.058,205.07h105.119c15.989,0,30.986-8.493,39.236-22.188
		c5.077-6.875,7.756-15.026,7.756-23.597c0-21.934-17.841-39.775-39.77-39.775c-1.125,0-2.25,0.05-3.37,0.146
		c-9.354-23.347-32.223-39.123-57.81-39.123c-0.405,0-0.81,0.015-1.21,0.024c-6.337-25.561-29.414-44.055-56.394-44.055
		c-32.045,0-58.118,26.071-58.118,58.119c0,18.79,8.938,36.039,23.79,46.88c-3.178,5.182-5.014,11.271-5.014,17.783
		C55.274,184.533,75.812,205.07,101.058,205.07"/>
	<path clip-path="url(#SVGID_2_)" fill="#7DA29D" d="M102.19,25.251V7.572C102.19,3.394,98.8,0,94.615,0S87.04,3.394,87.04,7.572
		v17.679c0,4.18,3.39,7.574,7.575,7.574S102.19,29.431,102.19,25.251"/>
	<path clip-path="url(#SVGID_2_)" fill="#7DA29D" d="M59.939,42.119c1.284,0,2.583-0.33,3.779-1.016
		c3.625-2.093,4.866-6.728,2.774-10.348L57.654,15.45c-2.09-3.623-6.729-4.868-10.349-2.77c-3.621,2.089-4.866,6.72-2.769,10.344
		l8.838,15.309C54.774,40.761,57.32,42.119,59.939,42.119"/>
	<path clip-path="url(#SVGID_2_)" fill="#7DA29D" d="M30.751,66.494c1.195,0.69,2.495,1.016,3.785,1.016
		c2.614,0,5.162-1.358,6.564-3.792c2.094-3.62,0.848-8.253-2.773-10.348l-15.303-8.832c-3.625-2.098-8.256-0.852-10.349,2.768
		c-2.093,3.627-0.852,8.258,2.773,10.348L30.751,66.494z"/>
	<path clip-path="url(#SVGID_2_)" fill="#7DA29D" d="M25.247,102.19c4.186,0,7.575-3.394,7.575-7.573
		c0-4.18-3.389-7.574-7.575-7.574H7.572c-4.181,0-7.57,3.394-7.57,7.574c0,4.179,3.389,7.573,7.57,7.573H25.247z"/>
	<path clip-path="url(#SVGID_2_)" fill="#7DA29D" d="M19.242,145.713c1.285,0,2.588-0.33,3.78-1.019l15.303-8.832
		c3.626-2.095,4.867-6.729,2.776-10.348c-2.09-3.624-6.725-4.865-10.351-2.775l-15.303,8.839c-3.621,2.095-4.863,6.726-2.773,10.35
		C14.076,144.355,16.624,145.713,19.242,145.713"/>
	<path clip-path="url(#SVGID_2_)" fill="#7DA29D" d="M154.696,67.509c1.287,0,2.591-0.33,3.786-1.016l15.301-8.835
		c3.624-2.094,4.86-6.725,2.771-10.349c-2.089-3.623-6.725-4.864-10.348-2.774l-15.302,8.839c-3.622,2.093-4.868,6.723-2.77,10.348
		C149.529,66.151,152.08,67.509,154.696,67.509"/>
	<path clip-path="url(#SVGID_2_)" fill="#7DA29D" d="M129.292,42.119c2.619,0,5.162-1.358,6.563-3.786l8.84-15.309
		c2.093-3.624,0.852-8.255-2.771-10.344c-3.629-2.098-8.26-0.853-10.346,2.77l-8.838,15.305c-2.092,3.624-0.851,8.255,2.772,10.348
		C126.708,41.789,128.008,42.119,129.292,42.119"/>
</g>
</svg>
