<?xml version="1.0" encoding="utf-8"?>
<!-- Generator: Adobe Illustrator 15.1.0, SVG Export Plug-In . SVG Version: 6.00 Build 0)  -->
<!DOCTYPE svg PUBLIC "-//W3C//DTD SVG 1.1//EN" "http://www.w3.org/Graphics/SVG/1.1/DTD/svg11.dtd">
<svg version="1.1" id="Layer_1" xmlns="http://www.w3.org/2000/svg" xmlns:xlink="http://www.w3.org/1999/xlink" x="0px" y="0px"
	 width="200.833px" height="204.761px" viewBox="0 0 200.833 204.761" enable-background="new 0 0 200.833 204.761"
	 xml:space="preserve">
<g>
	<defs>
		<rect id="SVGID_1_" x="1" y="0.857" width="199.974" height="204.5"/>
	</defs>
	<clipPath id="SVGID_2_">
		<use xlink:href="#SVGID_1_"  overflow="visible"/>
	</clipPath>
	<path clip-path="url(#SVGID_2_)" fill="#3E3E3E" d="M126.119,17.903c-6.289-6.317-14.907-10.339-24.514-10.654
		c-10.039-0.334-19.261,3.431-26.048,9.79c-6.791,6.35-11.155,15.297-11.48,25.328c-0.01,0.244-0.014,0.437-0.019,0.582
		c0,0.212,0,0.415,0,0.603l-0.007,5.071l-4.566-2.204c-2.249-1.082-4.616-1.94-7.076-2.548c-2.379-0.582-4.855-0.93-7.39-1.024v0.01
		l-0.102-0.014c-10.041-0.326-19.254,3.435-26.046,9.79c-6.764,6.334-11.122,15.24-11.48,25.233h0.01l-0.015,0.099
		c-0.331,10.04,3.438,19.255,9.791,26.046c6.352,6.788,15.3,11.154,25.333,11.488c3.786,0.122,8.924-0.198,16.138-0.648
		c17.171-1.063,46-2.854,98.307-1.129v-0.005l0.098,0.009c10.04,0.331,19.26-3.43,26.047-9.79
		c6.763-6.331,11.124-15.236,11.477-25.229h-0.009l0.02-0.098c0.328-10.04-3.441-19.261-9.789-26.046
		c-6.356-6.792-15.3-11.153-25.338-11.487c-3.197-0.104-6.322,0.207-9.316,0.894c-3.082,0.704-6.021,1.804-8.752,3.238l-4.521,2.373
		l-0.148-5.108C136.45,32.934,132.464,24.262,126.119,17.903 M101.802,0.88c11.308,0.376,21.44,5.104,28.838,12.525
		c6.392,6.41,10.744,14.837,12.056,24.204c1.94-0.766,3.962-1.387,6.024-1.857c3.502-0.803,7.168-1.17,10.946-1.043
		c11.788,0.391,22.301,5.518,29.774,13.503c7.448,7.961,11.871,18.751,11.51,30.492h0.009l-0.009,0.1
		c-0.386,11.782-5.523,22.305-13.509,29.772c-7.961,7.456-18.742,11.874-30.486,11.519v0.009l-0.101-0.019
		c-51.994-1.715-80.725,0.07-97.833,1.13c-7.329,0.455-12.546,0.78-16.713,0.639c-11.787-0.386-22.303-5.519-29.775-13.503
		C5.082,100.39,0.659,89.604,1.021,77.864h-0.01l0.014-0.103c0.386-11.783,5.52-22.301,13.505-29.774
		c7.958-7.45,18.743-11.872,30.488-11.51v-0.014l0.1,0.019c3.027,0.093,5.968,0.507,8.791,1.203
		c1.372,0.333,2.719,0.733,4.029,1.198c1.146-10.452,6.042-19.72,13.274-26.493C79.199,4.918,90.02,0.49,101.802,0.88z"/>
	<path clip-path="url(#SVGID_2_)" fill="#3E3E3E" d="M59.873,164.045c-0.882,1.528-0.362,3.474,1.159,4.356
		c1.527,0.883,3.476,0.367,4.356-1.161l11.521-19.956c0.887-1.522,0.365-3.473-1.16-4.351c-1.525-0.888-3.477-0.367-4.354,1.154
		L59.873,164.045z"/>
	<path clip-path="url(#SVGID_2_)" fill="#3E3E3E" d="M59.22,167.241c0.88,1.523,2.834,2.044,4.356,1.161
		c1.525-0.883,2.044-2.834,1.159-4.356l-11.517-19.957c-0.887-1.521-2.834-2.042-4.359-1.154c-1.521,0.878-2.042,2.828-1.161,4.351
		L59.22,167.241z"/>
	<path clip-path="url(#SVGID_2_)" fill="#3E3E3E" d="M59.108,165.643c0,1.767,1.429,3.195,3.197,3.195
		c1.767,0,3.195-1.429,3.195-3.195v-35.188c0-1.762-1.429-3.195-3.195-3.195c-1.769,0-3.197,1.434-3.197,3.195V165.643z"/>
	<path clip-path="url(#SVGID_2_)" fill="#3E3E3E" d="M94.49,200.564c-0.882,1.526-0.361,3.472,1.16,4.355
		c1.525,0.884,3.473,0.367,4.355-1.16l11.521-19.951c0.889-1.527,0.367-3.478-1.16-4.356c-1.523-0.889-3.474-0.366-4.353,1.161
		L94.49,200.564z"/>
	<path clip-path="url(#SVGID_2_)" fill="#3E3E3E" d="M93.835,203.759c0.881,1.527,2.834,2.044,4.357,1.16
		c1.521-0.884,2.043-2.829,1.155-4.355l-11.515-19.951c-0.885-1.527-2.834-2.05-4.358-1.161c-1.52,0.879-2.042,2.829-1.162,4.356
		L93.835,203.759z"/>
	<path clip-path="url(#SVGID_2_)" fill="#3E3E3E" d="M93.725,202.162c0,1.767,1.429,3.195,3.195,3.195
		c1.771,0,3.199-1.429,3.199-3.195v-35.184c0-1.768-1.429-3.195-3.199-3.195c-1.767,0-3.195,1.428-3.195,3.195V202.162z"/>
	<path clip-path="url(#SVGID_2_)" fill="#3E3E3E" d="M129.108,164.059c-0.878,1.522-0.353,3.469,1.175,4.343
		c1.519,0.874,3.469,0.348,4.338-1.175l11.521-19.951c0.878-1.527,0.356-3.469-1.176-4.348c-1.519-0.875-3.459-0.353-4.337,1.175
		L129.108,164.059z"/>
	<path clip-path="url(#SVGID_2_)" fill="#3E3E3E" d="M128.451,167.241c0.883,1.523,2.839,2.044,4.361,1.161
		c1.521-0.883,2.04-2.834,1.157-4.356l-11.516-19.957c-0.888-1.521-2.839-2.042-4.362-1.154c-1.522,0.878-2.039,2.828-1.161,4.351
		L128.451,167.241z"/>
	<path clip-path="url(#SVGID_2_)" fill="#3E3E3E" d="M128.342,165.643c0,1.767,1.434,3.195,3.195,3.195
		c1.768,0,3.195-1.429,3.195-3.195v-35.188c0-1.762-1.428-3.195-3.195-3.195c-1.762,0-3.195,1.434-3.195,3.195V165.643z"/>
</g>
</svg>
