<?xml version="1.0" encoding="utf-8"?>
<!-- Generator: Adobe Illustrator 15.1.0, SVG Export Plug-In . SVG Version: 6.00 Build 0)  -->
<!DOCTYPE svg PUBLIC "-//W3C//DTD SVG 1.1//EN" "http://www.w3.org/Graphics/SVG/1.1/DTD/svg11.dtd">
<svg version="1.1" id="Layer_1" xmlns="http://www.w3.org/2000/svg" xmlns:xlink="http://www.w3.org/1999/xlink" x="0px" y="0px"
	 width="205.333px" height="204.761px" viewBox="0 0 205.333 204.761" enable-background="new 0 0 205.333 204.761"
	 xml:space="preserve">
<g>
	<defs>
		<rect id="SVGID_1_" x="0" y="-0.143" width="205.092" height="205.092"/>
	</defs>
	<clipPath id="SVGID_2_">
		<use xlink:href="#SVGID_1_"  overflow="visible"/>
	</clipPath>
	<path clip-path="url(#SVGID_2_)" fill="#2E2E2E" d="M193.694,102.403c0-50.341-40.807-91.149-91.148-91.149
		c-50.341,0-91.152,40.808-91.152,91.149c0,50.341,40.811,91.148,91.152,91.148C152.887,193.551,193.694,152.744,193.694,102.403
		 M102.545-0.143c56.637,0,102.546,45.917,102.546,102.546c0,56.636-45.909,102.546-102.546,102.546
		C45.913,204.949,0,159.039,0,102.403C0,45.774,45.913-0.143,102.545-0.143"/>
	<path clip-path="url(#SVGID_2_)" fill="#2E2E2E" d="M166.974,68.218h-2.913H148.12v-4.549h10.761
		c-5.552-8.069-12.798-14.874-21.21-19.929l-3.31,5.954l-3.98-2.213l3.297-5.953c-8.703-4.46-18.487-7.116-28.854-7.451v11.354
		h-4.557V34.078C89.9,34.413,80.108,37.068,71.41,41.529l3.295,5.953l-3.984,2.213l-3.297-5.954
		C59.008,48.795,51.764,55.6,46.21,63.669h10.761v4.549H41.034h-2.917c12.252-23.044,36.51-38.734,64.428-38.734
		C130.464,29.484,154.721,45.174,166.974,68.218"/>
	<path clip-path="url(#SVGID_2_)" fill="#2E2E2E" d="M124.636,44.969l-14.279,42.644l-2.649,7.279
		c2.386,1.642,3.957,4.394,3.957,7.511c0,5.035-4.089,9.119-9.119,9.119c-5.035,0-9.118-4.083-9.118-9.119s4.083-9.119,9.118-9.119
		c0.294,0,0.587,0.023,0.876,0.049l2.728-7.495l16.367-41.641L124.636,44.969z"/>
</g>
</svg>
