<?xml version="1.0" encoding="utf-8"?>
<!-- Generator: Adobe Illustrator 15.1.0, SVG Export Plug-In . SVG Version: 6.00 Build 0)  -->
<!DOCTYPE svg PUBLIC "-//W3C//DTD SVG 1.1//EN" "http://www.w3.org/Graphics/SVG/1.1/DTD/svg11.dtd">
<svg version="1.1" id="Layer_1" xmlns="http://www.w3.org/2000/svg" xmlns:xlink="http://www.w3.org/1999/xlink" x="0px" y="0px"
	 width="206.349px" height="204.761px" viewBox="0 0 206.349 204.761" enable-background="new 0 0 206.349 204.761"
	 xml:space="preserve">
<g>
	<defs>
		<rect id="SVGID_1_" x="1.778" y="1.889" width="200.841" height="200.841"/>
	</defs>
	<clipPath id="SVGID_2_">
		<use xlink:href="#SVGID_1_"  overflow="visible"/>
	</clipPath>
	<path clip-path="url(#SVGID_2_)" fill="#4CD0CE" d="M68.856,102.31c0-18.389,14.958-33.343,33.345-33.343
		c18.383,0,33.346,14.955,33.346,33.343c0,18.384-14.963,33.342-33.346,33.342C83.814,135.652,68.856,120.694,68.856,102.31
		 M147.298,102.31c0-24.869-20.23-45.096-45.098-45.096C77.33,57.214,57.1,77.441,57.1,102.31c0,24.865,20.23,45.095,45.101,45.095
		C127.068,147.405,147.298,127.174,147.298,102.31"/>
	<path clip-path="url(#SVGID_2_)" fill="#4CD0CE" d="M108.076,32.725V7.769c0-3.248-2.633-5.884-5.877-5.884
		s-5.876,2.636-5.876,5.884v24.957c0,3.244,2.632,5.876,5.876,5.876S108.076,35.969,108.076,32.725"/>
	<path clip-path="url(#SVGID_2_)" fill="#4CD0CE" d="M52.995,58.984c1.504,0,3.006-0.574,4.158-1.721
		c2.294-2.298,2.294-6.017,0-8.311L39.501,31.3c-2.294-2.291-6.013-2.291-8.311,0c-2.296,2.294-2.296,6.017,0,8.311l17.648,17.652
		C49.989,58.41,51.489,58.984,52.995,58.984"/>
	<path clip-path="url(#SVGID_2_)" fill="#4CD0CE" d="M32.614,108.186c3.244,0,5.876-2.628,5.876-5.876
		c0-3.244-2.632-5.876-5.876-5.876H7.655c-3.244,0-5.878,2.632-5.878,5.876c0,3.248,2.634,5.876,5.878,5.876H32.614z"/>
	<path clip-path="url(#SVGID_2_)" fill="#4CD0CE" d="M39.503,173.318l17.648-17.647c2.294-2.294,2.294-6.017,0-8.312
		c-2.294-2.294-6.017-2.294-8.311,0l-17.648,17.648c-2.296,2.295-2.296,6.017,0,8.311c1.147,1.147,2.653,1.721,4.157,1.721
		C36.852,175.039,38.356,174.465,39.503,173.318"/>
	<path clip-path="url(#SVGID_2_)" fill="#4CD0CE" d="M108.076,196.854v-24.956c0-3.248-2.633-5.881-5.877-5.881
		s-5.876,2.633-5.876,5.881v24.956c0,3.244,2.632,5.876,5.876,5.876S108.076,200.098,108.076,196.854"/>
	<path clip-path="url(#SVGID_2_)" fill="#4CD0CE" d="M169.052,175.039c1.504,0,3.005-0.573,4.159-1.721
		c2.294-2.298,2.294-6.016,0-8.314l-17.655-17.648c-2.294-2.293-6.01-2.293-8.311,0c-2.295,2.295-2.295,6.018,0,8.312l17.647,17.651
		C166.041,174.465,167.544,175.039,169.052,175.039"/>
	<path clip-path="url(#SVGID_2_)" fill="#4CD0CE" d="M196.744,108.186c3.243,0,5.876-2.628,5.876-5.876
		c0-3.244-2.633-5.876-5.876-5.876h-24.957c-3.247,0-5.883,2.632-5.883,5.876c0,3.248,2.636,5.876,5.883,5.876H196.744z"/>
	<path clip-path="url(#SVGID_2_)" fill="#4CD0CE" d="M155.56,57.259l17.648-17.644c2.293-2.298,2.293-6.021,0-8.315
		c-2.295-2.294-6.018-2.294-8.315,0L147.25,48.948c-2.299,2.294-2.299,6.017,0,8.311c1.146,1.151,2.65,1.721,4.151,1.721
		C152.905,58.98,154.414,58.41,155.56,57.259"/>
</g>
</svg>
