<?xml version="1.0" encoding="utf-8"?>
<!-- Generator: Adobe Illustrator 15.1.0, SVG Export Plug-In . SVG Version: 6.00 Build 0)  -->
<!DOCTYPE svg PUBLIC "-//W3C//DTD SVG 1.1//EN" "http://www.w3.org/Graphics/SVG/1.1/DTD/svg11.dtd">
<svg version="1.1" id="Layer_1" xmlns="http://www.w3.org/2000/svg" xmlns:xlink="http://www.w3.org/1999/xlink" x="0px" y="0px"
	 width="304.333px" height="204.761px" viewBox="0 0 304.333 204.761" enable-background="new 0 0 304.333 204.761"
	 xml:space="preserve">
<g>
	<g>
		<path fill="#FFFFFF" d="M152.638,189.583c76.252,0,136.295-57.459,136.295-86.195c0-28.729-60.043-86.188-136.295-86.188
			c-76.252,0-136.3,57.459-136.3,86.188C16.338,132.125,76.386,189.583,152.638,189.583 M152.638,0.857
			c81.696,0,152.638,62.091,152.638,102.531c0,40.445-70.941,102.531-152.638,102.531C65.492,205.919,0,143.833,0,103.388
			C0,62.948,65.492,0.857,152.638,0.857"/>
	</g>
	<g>
		<path fill="#FFFFFF" d="M153.042,57.094c25.467,0,46.299,20.835,46.299,46.302c0,25.453-20.832,46.286-46.299,46.286
			c-25.459,0-46.288-20.833-46.288-46.286C106.753,77.929,127.443,57.094,153.042,57.094 M153.042,166.023
			c34.59,0,62.643-28.043,62.643-62.627c0-34.591-28.053-62.645-62.643-62.645c-34.577,0-62.625,28.053-62.625,62.645
			C90.417,137.98,118.464,166.023,153.042,166.023"/>
	</g>
</g>
</svg>
