<?xml version="1.0" encoding="utf-8"?>
<!-- Generator: Adobe Illustrator 15.1.0, SVG Export Plug-In . SVG Version: 6.00 Build 0)  -->
<!DOCTYPE svg PUBLIC "-//W3C//DTD SVG 1.1//EN" "http://www.w3.org/Graphics/SVG/1.1/DTD/svg11.dtd">
<svg version="1.1" id="Layer_1" xmlns="http://www.w3.org/2000/svg" xmlns:xlink="http://www.w3.org/1999/xlink" x="0px" y="0px"
	 width="157.333px" height="204.761px" viewBox="0 0 157.333 204.761" enable-background="new 0 0 157.333 204.761"
	 xml:space="preserve">
<g>
	<defs>
		<rect id="SVGID_1_" y="0.632" width="157.812" height="205.225"/>
	</defs>
	<clipPath id="SVGID_2_">
		<use xlink:href="#SVGID_1_"  overflow="visible"/>
	</clipPath>
	<path clip-path="url(#SVGID_2_)" fill="#373636" d="M0,3.355v199.778c0,1.634,1.091,2.724,2.726,2.724
		c1.634,0,2.725-1.09,2.725-2.724V3.355c0-1.634-1.091-2.724-2.725-2.724C1.091,0.632,0,1.992,0,3.355"/>
	<path clip-path="url(#SVGID_2_)" fill="#373636" d="M152.628,70.95c0,6.811-4.91,12.533-11.721,13.625l-21.807,2.998V36.606
		l21.807,2.998c6.811,0.819,11.721,6.815,11.721,13.629V70.95z M22.62,22.98l47.697,6.814v63.774c0,0.271,0,0.814,0.272,1.088
		l-47.696,6.816V22.98H22.62z M75.766,30.34l37.886,5.447v52.605L75.766,93.84v-0.271V30.34z M141.451,34.153L20.168,16.981
		c-0.817,0-1.634,0-2.181,0.548c-0.545,0.545-0.817,1.36-0.817,2.183v84.485c0,0.818,0.272,1.634,0.817,2.181
		c0.546,0.546,1.091,0.546,1.908,0.546h0.272l121.283-17.172c9.268-1.36,16.354-9.538,16.354-18.803V52.958
		C158.076,43.695,150.99,35.516,141.451,34.153"/>
</g>
</svg>
