<?xml version="1.0" encoding="utf-8"?>
<!-- Generator: Adobe Illustrator 15.1.0, SVG Export Plug-In . SVG Version: 6.00 Build 0)  -->
<!DOCTYPE svg PUBLIC "-//W3C//DTD SVG 1.1//EN" "http://www.w3.org/Graphics/SVG/1.1/DTD/svg11.dtd">
<svg version="1.1" id="Layer_1" xmlns="http://www.w3.org/2000/svg" xmlns:xlink="http://www.w3.org/1999/xlink" x="0px" y="0px"
	 width="157.333px" height="204.761px" viewBox="0 0 157.333 204.761" enable-background="new 0 0 157.333 204.761"
	 xml:space="preserve">
<g>
	<g>
		<path fill="#F9D12B" d="M0,3.355v199.777c0,1.635,1.091,2.725,2.726,2.725c1.634,0,2.725-1.09,2.725-2.725V3.355
			c0-1.634-1.091-2.724-2.725-2.724C1.091,0.632,0,1.992,0,3.355"/>
	</g>
	<g>
		<path fill="#F9D12B" d="M152.627,70.95c0,6.811-4.91,12.533-11.721,13.625L119.1,87.573V36.606l21.807,2.998
			c6.811,0.819,11.721,6.815,11.721,13.629V70.95z M22.62,22.98l47.697,6.814v63.774c0,0.271,0,0.814,0.272,1.088l-47.696,6.816
			V22.98H22.62z M75.766,30.34l37.886,5.447v52.605L75.766,93.84v-0.271V30.34z M141.452,34.153L20.168,16.981
			c-0.817,0-1.634,0-2.181,0.548c-0.545,0.545-0.817,1.36-0.817,2.183v84.485c0,0.818,0.272,1.635,0.817,2.182
			c0.546,0.545,1.091,0.545,1.908,0.545h0.272L141.45,89.752c9.268-1.36,16.354-9.538,16.354-18.803V52.958
			C158.077,43.695,150.991,35.516,141.452,34.153"/>
	</g>
</g>
</svg>
