<?xml version="1.0" encoding="utf-8"?>
<!-- Generator: Adobe Illustrator 15.1.0, SVG Export Plug-In . SVG Version: 6.00 Build 0)  -->
<!DOCTYPE svg PUBLIC "-//W3C//DTD SVG 1.1//EN" "http://www.w3.org/Graphics/SVG/1.1/DTD/svg11.dtd">
<svg version="1.1" id="Layer_1" xmlns="http://www.w3.org/2000/svg" xmlns:xlink="http://www.w3.org/1999/xlink" x="0px" y="0px"
	 width="206.35px" height="204.761px" viewBox="0 0 206.35 204.761" enable-background="new 0 0 206.35 204.761"
	 xml:space="preserve">
<g>
	<g>
		<path fill="#F9D12B" d="M68.856,102.31c0-18.389,14.958-33.343,33.345-33.343c18.383,0,33.346,14.955,33.346,33.343
			c0,18.384-14.963,33.342-33.346,33.342C83.814,135.652,68.856,120.694,68.856,102.31 M147.298,102.31
			c0-24.869-20.229-45.096-45.098-45.096c-24.87,0-45.1,20.227-45.1,45.096c0,24.865,20.229,45.095,45.101,45.095
			C127.068,147.405,147.298,127.173,147.298,102.31"/>
	</g>
	<g>
		<path fill="#F9D12B" d="M108.076,32.725V7.769c0-3.248-2.633-5.884-5.877-5.884s-5.876,2.636-5.876,5.884v24.957
			c0,3.244,2.632,5.876,5.876,5.876S108.076,35.969,108.076,32.725"/>
	</g>
	<g>
		<path fill="#F9D12B" d="M52.995,58.984c1.504,0,3.006-0.574,4.158-1.721c2.294-2.298,2.294-6.017,0-8.311L39.501,31.3
			c-2.294-2.291-6.013-2.291-8.311,0c-2.296,2.294-2.296,6.017,0,8.311l17.647,17.652C49.989,58.41,51.489,58.984,52.995,58.984"/>
	</g>
	<g>
		<path fill="#F9D12B" d="M32.614,108.186c3.244,0,5.876-2.628,5.876-5.876c0-3.244-2.632-5.876-5.876-5.876H7.655
			c-3.244,0-5.878,2.632-5.878,5.876c0,3.248,2.634,5.876,5.878,5.876H32.614z"/>
	</g>
	<g>
		<path fill="#F9D12B" d="M39.503,173.318l17.648-17.646c2.294-2.295,2.294-6.018,0-8.313c-2.294-2.294-6.018-2.294-8.312,0
			l-17.647,17.648c-2.296,2.295-2.296,6.017,0,8.311c1.146,1.146,2.652,1.721,4.157,1.721
			C36.852,175.039,38.356,174.464,39.503,173.318"/>
	</g>
	<g>
		<path fill="#F9D12B" d="M108.076,196.854v-24.956c0-3.248-2.633-5.881-5.877-5.881s-5.876,2.633-5.876,5.881v24.956
			c0,3.244,2.632,5.876,5.876,5.876S108.076,200.098,108.076,196.854"/>
	</g>
	<g>
		<path fill="#F9D12B" d="M169.052,175.039c1.505,0,3.006-0.572,4.159-1.721c2.294-2.298,2.294-6.016,0-8.314l-17.654-17.647
			c-2.295-2.293-6.011-2.293-8.312,0c-2.295,2.295-2.295,6.019,0,8.312l17.647,17.651
			C166.041,174.464,167.544,175.039,169.052,175.039"/>
	</g>
	<g>
		<path fill="#F9D12B" d="M196.744,108.186c3.243,0,5.876-2.628,5.876-5.876c0-3.244-2.633-5.876-5.876-5.876h-24.957
			c-3.247,0-5.883,2.632-5.883,5.876c0,3.248,2.636,5.876,5.883,5.876H196.744z"/>
	</g>
	<g>
		<path fill="#F9D12B" d="M155.56,57.259l17.647-17.644c2.293-2.298,2.293-6.021,0-8.315c-2.295-2.294-6.018-2.294-8.314,0
			L147.25,48.948c-2.299,2.294-2.299,6.017,0,8.311c1.146,1.151,2.65,1.721,4.151,1.721C152.905,58.98,154.414,58.41,155.56,57.259"
			/>
	</g>
</g>
</svg>
