<?xml version="1.0" encoding="utf-8"?>
<!-- Generator: Adobe Illustrator 15.1.0, SVG Export Plug-In . SVG Version: 6.00 Build 0)  -->
<!DOCTYPE svg PUBLIC "-//W3C//DTD SVG 1.1//EN" "http://www.w3.org/Graphics/SVG/1.1/DTD/svg11.dtd">
<svg version="1.1" id="Layer_1" xmlns="http://www.w3.org/2000/svg" xmlns:xlink="http://www.w3.org/1999/xlink" x="0px" y="0px"
	 width="200.833px" height="204.761px" viewBox="0 0 200.833 204.761" enable-background="new 0 0 200.833 204.761"
	 xml:space="preserve">
<g>
	<g>
		<path fill="#F9D12B" d="M126.12,17.903c-6.289-6.317-14.908-10.339-24.515-10.654c-10.039-0.334-19.261,3.431-26.048,9.79
			c-6.791,6.35-11.155,15.297-11.48,25.328c-0.01,0.244-0.014,0.437-0.019,0.582c0,0.212,0,0.415,0,0.603l-0.007,5.071l-4.566-2.204
			c-2.249-1.082-4.616-1.94-7.076-2.548c-2.379-0.582-4.855-0.93-7.39-1.024v0.01l-0.102-0.014
			c-10.041-0.326-19.254,3.435-26.046,9.79c-6.764,6.334-11.122,15.24-11.48,25.233h0.01l-0.015,0.099
			c-0.331,10.04,3.438,19.255,9.791,26.046c6.352,6.787,15.3,11.154,25.333,11.488c3.786,0.121,8.924-0.199,16.138-0.648
			c17.171-1.063,46-2.854,98.308-1.129v-0.006l0.098,0.01c10.039,0.331,19.26-3.43,26.047-9.79
			c6.764-6.331,11.124-15.236,11.477-25.229h-0.009l0.021-0.098c0.328-10.04-3.441-19.261-9.789-26.046
			c-6.356-6.792-15.301-11.153-25.338-11.487c-3.197-0.104-6.322,0.207-9.316,0.894c-3.082,0.704-6.021,1.804-8.752,3.238
			l-4.521,2.373l-0.147-5.108C136.45,32.934,132.463,24.262,126.12,17.903 M101.801,0.88c11.309,0.376,21.441,5.104,28.839,12.525
			c6.392,6.41,10.743,14.837,12.056,24.204c1.939-0.766,3.963-1.387,6.023-1.857c3.503-0.803,7.169-1.17,10.947-1.043
			c11.787,0.391,22.301,5.518,29.773,13.503c7.448,7.961,11.871,18.751,11.51,30.492h0.01l-0.01,0.1
			c-0.386,11.782-5.523,22.305-13.509,29.771c-7.961,7.457-18.741,11.875-30.485,11.52v0.009l-0.102-0.019
			c-51.994-1.715-80.725,0.069-97.833,1.129c-7.329,0.455-12.546,0.781-16.713,0.64c-11.787-0.386-22.303-5.519-29.775-13.503
			C5.082,100.39,0.659,89.604,1.021,77.864h-0.01l0.014-0.104C1.411,65.978,6.545,55.46,14.53,47.987
			c7.958-7.45,18.743-11.872,30.488-11.51v-0.014l0.1,0.019c3.027,0.093,5.968,0.507,8.791,1.203
			c1.372,0.333,2.719,0.733,4.029,1.198c1.146-10.452,6.042-19.72,13.274-26.493C79.199,4.918,90.02,0.49,101.801,0.88z"/>
	</g>
	<g>
		<path fill="#F9D12B" d="M59.873,164.044c-0.882,1.529-0.362,3.475,1.159,4.356c1.527,0.884,3.476,0.367,4.356-1.161l11.521-19.955
			c0.887-1.522,0.365-3.474-1.16-4.352c-1.525-0.889-3.477-0.367-4.354,1.154L59.873,164.044z"/>
	</g>
	<g>
		<path fill="#F9D12B" d="M59.22,167.242c0.88,1.522,2.834,2.043,4.356,1.16c1.525-0.883,2.044-2.834,1.159-4.355l-11.517-19.957
			c-0.887-1.521-2.834-2.043-4.359-1.154c-1.521,0.878-2.042,2.828-1.161,4.352L59.22,167.242z"/>
	</g>
	<g>
		<path fill="#F9D12B" d="M59.108,165.643c0,1.767,1.429,3.194,3.197,3.194c1.767,0,3.195-1.428,3.195-3.194v-35.188
			c0-1.762-1.429-3.195-3.195-3.195c-1.769,0-3.197,1.435-3.197,3.195V165.643z"/>
	</g>
	<g>
		<path fill="#F9D12B" d="M94.49,200.564c-0.882,1.525-0.361,3.473,1.16,4.355c1.525,0.883,3.473,0.367,4.355-1.16l11.521-19.951
			c0.889-1.527,0.367-3.479-1.16-4.355c-1.523-0.89-3.474-0.367-4.353,1.16L94.49,200.564z"/>
	</g>
	<g>
		<path fill="#F9D12B" d="M93.835,203.759c0.881,1.527,2.834,2.044,4.357,1.16c1.521-0.885,2.043-2.83,1.155-4.355l-11.515-19.951
			c-0.885-1.527-2.834-2.05-4.358-1.16c-1.52,0.879-2.042,2.828-1.162,4.355L93.835,203.759z"/>
	</g>
	<g>
		<path fill="#F9D12B" d="M93.725,202.162c0,1.768,1.429,3.195,3.195,3.195c1.771,0,3.199-1.429,3.199-3.195v-35.184
			c0-1.768-1.429-3.195-3.199-3.195c-1.767,0-3.195,1.428-3.195,3.195V202.162z"/>
	</g>
	<g>
		<path fill="#F9D12B" d="M129.108,164.059c-0.878,1.522-0.354,3.469,1.176,4.343c1.518,0.874,3.469,0.348,4.338-1.175
			l11.521-19.951c0.878-1.526,0.356-3.469-1.177-4.349c-1.518-0.875-3.459-0.352-4.336,1.176L129.108,164.059z"/>
	</g>
	<g>
		<path fill="#F9D12B" d="M128.452,167.242c0.883,1.522,2.838,2.043,4.36,1.16c1.521-0.883,2.04-2.834,1.157-4.355l-11.516-19.957
			c-0.889-1.521-2.84-2.043-4.363-1.154c-1.521,0.878-2.039,2.828-1.16,4.352L128.452,167.242z"/>
	</g>
	<g>
		<path fill="#F9D12B" d="M128.342,165.643c0,1.767,1.434,3.194,3.195,3.194c1.768,0,3.194-1.428,3.194-3.194v-35.188
			c0-1.762-1.428-3.195-3.194-3.195c-1.763,0-3.195,1.435-3.195,3.195V165.643z"/>
	</g>
</g>
</svg>
