<?xml version="1.0" encoding="utf-8"?>
<!-- Generator: Adobe Illustrator 15.1.0, SVG Export Plug-In . SVG Version: 6.00 Build 0)  -->
<!DOCTYPE svg PUBLIC "-//W3C//DTD SVG 1.1//EN" "http://www.w3.org/Graphics/SVG/1.1/DTD/svg11.dtd">
<svg version="1.1" id="Layer_1" xmlns="http://www.w3.org/2000/svg" xmlns:xlink="http://www.w3.org/1999/xlink" x="0px" y="0px"
	 width="205.333px" height="204.761px" viewBox="0 0 205.333 204.761" enable-background="new 0 0 205.333 204.761"
	 xml:space="preserve">
<g>
	<g>
		<path fill="#F9D12B" d="M193.694,102.403c0-50.341-40.807-91.149-91.148-91.149c-50.341,0-91.152,40.808-91.152,91.149
			s40.811,91.147,91.152,91.147C152.887,193.55,193.694,152.744,193.694,102.403 M102.545-0.143
			c56.637,0,102.545,45.917,102.545,102.546c0,56.636-45.908,102.546-102.545,102.546C45.913,204.949,0,159.039,0,102.403
			C0,45.774,45.913-0.143,102.545-0.143"/>
	</g>
	<g>
		<path fill="#F9D12B" d="M166.974,68.218h-2.913H148.12v-4.549h10.762c-5.553-8.069-12.799-14.874-21.211-19.929l-3.31,5.954
			l-3.979-2.213l3.297-5.953c-8.703-4.46-18.487-7.116-28.854-7.451v11.354h-4.558V34.078c-10.367,0.335-20.159,2.99-28.857,7.451
			l3.295,5.953l-3.984,2.213l-3.297-5.954C59.008,48.795,51.764,55.6,46.21,63.669h10.761v4.549H41.034h-2.917
			c12.252-23.044,36.51-38.734,64.428-38.734C130.463,29.484,154.721,45.174,166.974,68.218"/>
	</g>
	<g>
		<path fill="#F9D12B" d="M124.635,44.969l-14.278,42.645l-2.649,7.279c2.387,1.642,3.957,4.394,3.957,7.511
			c0,5.035-4.088,9.119-9.119,9.119c-5.035,0-9.118-4.083-9.118-9.119c0-5.036,4.083-9.119,9.118-9.119
			c0.294,0,0.587,0.023,0.876,0.049l2.728-7.495l16.367-41.641L124.635,44.969z"/>
	</g>
</g>
</svg>
