<?xml version="1.0" encoding="utf-8"?>
<!-- Generator: Adobe Illustrator 15.1.0, SVG Export Plug-In . SVG Version: 6.00 Build 0)  -->
<!DOCTYPE svg PUBLIC "-//W3C//DTD SVG 1.1//EN" "http://www.w3.org/Graphics/SVG/1.1/DTD/svg11.dtd">
<svg version="1.1" id="Layer_1" xmlns="http://www.w3.org/2000/svg" xmlns:xlink="http://www.w3.org/1999/xlink" x="0px" y="0px"
	 width="254.762px" height="204.761px" viewBox="0 0 254.762 204.761" enable-background="new 0 0 254.762 204.761"
	 xml:space="preserve">
<g>
	<g>
		<path fill="#F9D12B" d="M51.648,94.621c0-23.693,19.275-42.973,42.968-42.973c19.404,0,36.073,12.935,41.28,31.028
			c-20.803,5.562-37.377,21.545-43.462,42.634c-1.017-0.094-2.029-0.139-3.051-0.139c-6.742,0-13.03,1.978-18.326,5.367
			C58.989,122.634,51.648,109.265,51.648,94.621 M145.693,96.129c0.024-0.005,0.05-0.017,0.078-0.017
			c2.111-0.288,4.265-0.429,6.448-0.429c21.124,0,39.798,14.205,45.414,34.55c1.107,4.021,5.259,6.388,9.287,5.296
			c2.119-0.576,4.296-0.869,6.479-0.869c13.574,0,24.623,11.047,24.623,24.625c0,5.399-1.713,10.521-4.957,14.815
			c-0.174,0.229-0.334,0.468-0.479,0.715c-5.501,9.319-15.61,15.108-26.409,15.108h-105.12c-16.896,0-30.634-13.746-30.634-30.639
			c0-10.453,8.503-18.963,18.96-18.963c2.152,0,4.269,0.362,6.294,1.074c2.127,0.747,4.468,0.516,6.403-0.645
			c1.93-1.149,3.246-3.105,3.595-5.328c3.274-20.832,19.604-36.496,39.983-39.295C145.667,96.125,145.684,96.129,145.693,96.129
			 M101.058,205.07h105.119c15.989,0,30.986-8.492,39.236-22.188c5.077-6.875,7.756-15.026,7.756-23.598
			c0-21.934-17.841-39.775-39.771-39.775c-1.125,0-2.25,0.051-3.369,0.146c-9.354-23.347-32.223-39.123-57.811-39.123
			c-0.404,0-0.81,0.015-1.21,0.024c-6.337-25.561-29.414-44.055-56.394-44.055c-32.045,0-58.118,26.071-58.118,58.119
			c0,18.791,8.938,36.039,23.79,46.88c-3.178,5.182-5.014,11.271-5.014,17.783C55.274,184.533,75.812,205.07,101.058,205.07"/>
	</g>
	<g>
		<path fill="#F9D12B" d="M102.19,25.251V7.572C102.19,3.394,98.8,0,94.615,0C90.43,0,87.04,3.394,87.04,7.572v17.679
			c0,4.18,3.39,7.574,7.575,7.574C98.8,32.825,102.19,29.431,102.19,25.251"/>
	</g>
	<g>
		<path fill="#F9D12B" d="M59.939,42.119c1.284,0,2.583-0.33,3.779-1.016c3.625-2.093,4.866-6.728,2.774-10.348L57.654,15.45
			c-2.09-3.623-6.729-4.868-10.349-2.77c-3.621,2.089-4.866,6.72-2.769,10.344l8.838,15.309
			C54.774,40.761,57.32,42.119,59.939,42.119"/>
	</g>
	<g>
		<path fill="#F9D12B" d="M30.751,66.494c1.195,0.69,2.495,1.016,3.785,1.016c2.614,0,5.162-1.358,6.564-3.792
			c2.094-3.62,0.848-8.253-2.773-10.348l-15.303-8.832c-3.625-2.098-8.256-0.852-10.349,2.768
			c-2.093,3.627-0.852,8.258,2.773,10.348L30.751,66.494z"/>
	</g>
	<g>
		<path fill="#F9D12B" d="M25.247,102.19c4.186,0,7.575-3.394,7.575-7.573c0-4.18-3.389-7.574-7.575-7.574H7.572
			c-4.181,0-7.57,3.394-7.57,7.574c0,4.179,3.389,7.573,7.57,7.573H25.247z"/>
	</g>
	<g>
		<path fill="#F9D12B" d="M19.242,145.712c1.285,0,2.588-0.33,3.78-1.019l15.303-8.832c3.626-2.095,4.867-6.729,2.776-10.348
			c-2.09-3.624-6.725-4.865-10.351-2.774l-15.303,8.838c-3.621,2.096-4.863,6.727-2.773,10.351
			C14.076,144.355,16.624,145.712,19.242,145.712"/>
	</g>
	<g>
		<path fill="#F9D12B" d="M154.695,67.509c1.287,0,2.592-0.33,3.787-1.016l15.301-8.835c3.624-2.094,4.859-6.725,2.771-10.349
			c-2.089-3.623-6.725-4.864-10.348-2.774l-15.302,8.839c-3.622,2.093-4.868,6.723-2.771,10.348
			C149.529,66.151,152.08,67.509,154.695,67.509"/>
	</g>
	<g>
		<path fill="#F9D12B" d="M129.292,42.119c2.619,0,5.162-1.358,6.563-3.786l8.84-15.309c2.093-3.624,0.852-8.255-2.771-10.344
			c-3.629-2.098-8.26-0.853-10.346,2.77l-8.838,15.305c-2.092,3.624-0.851,8.255,2.772,10.348
			C126.708,41.789,128.008,42.119,129.292,42.119"/>
	</g>
</g>
</svg>
